<?xml version="1.0" encoding="UTF-8" standalone="no"?>
<svg
   xmlns:dc="http://purl.org/dc/elements/1.1/"
   xmlns:cc="http://creativecommons.org/ns#"
   xmlns:rdf="http://www.w3.org/1999/02/22-rdf-syntax-ns#"
   xmlns:svg="http://www.w3.org/2000/svg"
   xmlns="http://www.w3.org/2000/svg"
   xmlns:sodipodi="http://sodipodi.sourceforge.net/DTD/sodipodi-0.dtd"
   xmlns:inkscape="http://www.inkscape.org/namespaces/inkscape"
   version="1.1"
   id="Rackspace"
   x="0px"
   y="0px"
   width="299.572px"
   height="87.635px"
   viewBox="0 0 299.572 87.635"
   enable-background="new 0 0 299.572 87.635"
   xml:space="preserve"
   inkscape:version="0.48.2 r9819"
   sodipodi:docname="rackspace-logo.svg"><metadata
   id="metadata3394"><rdf:RDF><cc:Work
       rdf:about=""><dc:format>image/svg+xml</dc:format><dc:type
         rdf:resource="http://purl.org/dc/dcmitype/StillImage" /><dc:title /></cc:Work></rdf:RDF></metadata><defs
   id="defs3392" /><sodipodi:namedview
   pagecolor="#ffffff"
   bordercolor="#666666"
   borderopacity="1"
   objecttolerance="10"
   gridtolerance="10"
   guidetolerance="10"
   inkscape:pageopacity="0"
   inkscape:pageshadow="2"
   inkscape:window-width="1145"
   inkscape:window-height="651"
   id="namedview3390"
   showgrid="false"
   inkscape:zoom="1.0748668"
   inkscape:cx="149.786"
   inkscape:cy="43.817501"
   inkscape:window-x="660"
   inkscape:window-y="215"
   inkscape:window-maximized="0"
   inkscape:current-layer="Rackspace" />
<g
   id="g3310"
   transform="matrix(0.66365274,0,0,0.66367688,2.7908398,14.588111)">
	<g
   id="g3312">
		<path
   d="M 2.929,84.56 C 1.331,84.56 0.318,83.786 0.216,82.49 0.191,82.156 0.211,81.76 0.272,81.402 L 1.41,75.416 H 0.037 C 0.026,75.416 0.016,75.411 0.009,75.402 0.001,75.394 -0.002,75.382 0,75.372 L 0.253,74.015 C 0.257,73.997 0.273,73.984 0.29,73.984 H 1.696 L 2.286,70.9 C 2.289,70.881 2.305,70.87 2.323,70.87 H 3.84 c 0.012,0 0.022,0.004 0.029,0.013 0.007,0.009 0.01,0.021 0.008,0.031 l -0.586,3.07 h 3.208 c 0.012,0 0.021,0.005 0.029,0.015 0.007,0.008 0.01,0.02 0.008,0.03 l -0.253,1.357 c -0.003,0.018 -0.019,0.03 -0.037,0.03 H 3.023 l -1.127,5.92 c -0.015,0.172 -0.038,0.504 -0.02,0.748 0.066,0.847 0.832,1.024 1.463,1.024 0.468,0 0.958,-0.106 1.457,-0.317 0.014,-0.005 0.027,-0.002 0.038,0.006 0.011,0.009 0.017,0.022 0.014,0.037 l -0.27,1.397 C 4.576,84.244 4.567,84.253 4.556,84.258 4.054,84.47 3.566,84.56 2.929,84.56 z"
   id="path3314"
   inkscape:connector-curvature="0" />
		<path
   d="m 15.944,84.38 h -1.537 c -0.011,0 -0.021,-0.004 -0.028,-0.014 -0.008,-0.009 -0.011,-0.02 -0.008,-0.031 l 1.1,-5.85 c 0.068,-0.317 0.097,-0.789 0.068,-1.147 -0.104,-1.329 -1.019,-2.122 -2.447,-2.122 -1.612,0 -3.058,1.39 -3.436,3.305 L 8.555,84.35 C 8.552,84.369 8.536,84.38 8.518,84.38 H 6.98 C 6.969,84.38 6.959,84.376 6.952,84.366 6.944,84.357 6.941,84.346 6.944,84.335 L 9.717,69.761 C 9.72,69.743 9.736,69.73 9.753,69.73 h 1.537 c 0.012,0 0.022,0.005 0.029,0.014 0.007,0.009 0.01,0.021 0.008,0.031 l -1.105,5.785 c 0.753,-0.907 1.749,-1.797 3.381,-1.797 2.021,0 3.428,1.268 3.581,3.229 0.031,0.405 -0.013,0.931 -0.135,1.607 l -1.068,5.75 c -0.002,0.018 -0.018,0.031 -0.037,0.031 z"
   id="path3316"
   inkscape:connector-curvature="0" />
		<path
   d="m 76.138,84.38 h -2.416 c -0.011,0 -0.021,-0.004 -0.028,-0.014 -0.008,-0.009 -0.011,-0.02 -0.008,-0.031 l 1.119,-5.85 c 0.056,-0.357 0.078,-0.77 0.057,-1.048 -0.082,-1.046 -0.725,-1.623 -1.81,-1.623 -1.269,0 -2.27,1.022 -2.552,2.604 l -1.134,5.931 c -0.003,0.019 -0.019,0.03 -0.037,0.03 h -2.415 c -0.012,0 -0.022,-0.004 -0.029,-0.014 -0.007,-0.009 -0.01,-0.02 -0.008,-0.031 l 1.12,-5.85 c 0.056,-0.357 0.078,-0.77 0.056,-1.048 -0.082,-1.046 -0.725,-1.623 -1.809,-1.623 -1.28,0 -2.266,0.999 -2.572,2.604 l -1.114,5.931 c -0.003,0.018 -0.019,0.03 -0.036,0.03 h -2.436 c -0.012,0 -0.022,-0.004 -0.029,-0.014 -0.007,-0.009 -0.01,-0.02 -0.008,-0.031 L 62.04,73.792 c 0.003,-0.018 0.019,-0.031 0.036,-0.031 h 2.416 c 0.012,0 0.022,0.006 0.029,0.014 0.007,0.009 0.01,0.021 0.008,0.031 l -0.231,1.211 c 0.733,-0.778 1.601,-1.476 2.912,-1.476 1.416,0 2.524,0.755 3.05,2.074 0.93,-1.357 2.234,-2.074 3.778,-2.074 1.925,0 3.267,1.253 3.419,3.189 0.042,0.545 -0.077,1.212 -0.183,1.802 l -0.011,0.068 -1.089,5.75 c -0.003,0.018 -0.019,0.03 -0.036,0.03 z"
   id="path3318"
   inkscape:connector-curvature="0" />
		<path
   d="m 99.124,84.38 h -2.416 c -0.012,0 -0.022,-0.004 -0.029,-0.014 -0.007,-0.009 -0.01,-0.02 -0.008,-0.031 l 1.101,-5.85 c 0.07,-0.326 0.1,-0.738 0.075,-1.048 -0.08,-1.032 -0.783,-1.623 -1.929,-1.623 -1.309,0 -2.35,1.022 -2.651,2.604 l -1.114,5.931 c -0.003,0.018 -0.019,0.03 -0.036,0.03 h -2.436 c -0.012,0 -0.022,-0.004 -0.029,-0.014 -0.007,-0.009 -0.01,-0.02 -0.008,-0.031 l 1.991,-10.541 c 0.003,-0.018 0.019,-0.031 0.036,-0.031 h 2.416 c 0.011,0 0.021,0.006 0.028,0.014 0.008,0.009 0.011,0.021 0.008,0.031 l -0.23,1.213 c 0.686,-0.707 1.644,-1.478 3.032,-1.478 1.962,0 3.327,1.253 3.479,3.189 0.045,0.573 -0.066,1.265 -0.175,1.867 l -1.067,5.75 c -0.005,0.019 -0.02,0.032 -0.038,0.032 z"
   id="path3320"
   inkscape:connector-curvature="0" />
		<path
   d="m 159.65,84.62 c -2.864,0 -5.018,-1.943 -5.235,-4.727 -0.132,-1.685 0.407,-3.275 1.519,-4.48 1.095,-1.188 2.646,-1.87 4.255,-1.87 2.434,0 3.786,1.312 4.491,2.414 0.011,0.017 0.007,0.039 -0.01,0.05 l -1.776,1.277 c -0.008,0.008 -0.019,0.008 -0.028,0.008 -0.01,-0.002 -0.019,-0.008 -0.024,-0.016 -0.568,-0.812 -1.287,-1.562 -2.688,-1.562 -0.802,0 -1.606,0.374 -2.207,1.026 -0.752,0.838 -1.131,1.978 -1.041,3.127 0.118,1.506 1.238,2.6 2.664,2.6 0.954,0 1.701,-0.338 2.577,-1.167 0.007,-0.007 0.014,-0.013 0.027,-0.011 0.011,0.001 0.021,0.006 0.026,0.013 l 1.401,1.577 c 0.014,0.016 0.013,0.038 -0.002,0.052 -0.853,0.836 -1.989,1.689 -3.949,1.689 z"
   id="path3322"
   inkscape:connector-curvature="0" />
		<path
   d="m 167.47,84.38 h -2.415 c -0.012,0 -0.022,-0.004 -0.029,-0.014 -0.007,-0.009 -0.01,-0.02 -0.008,-0.031 l 2.773,-14.574 c 0.003,-0.018 0.019,-0.031 0.037,-0.031 h 2.416 c 0.011,0 0.021,0.005 0.028,0.014 0.008,0.009 0.011,0.021 0.008,0.031 l -2.773,14.575 c -0.003,0.018 -0.019,0.03 -0.037,0.03 z"
   id="path3324"
   inkscape:connector-curvature="0" />
		<path
   d="m 186.326,84.601 c -1.974,0 -3.347,-1.253 -3.499,-3.19 -0.045,-0.575 0.066,-1.265 0.175,-1.866 l 1.088,-5.75 c 0.003,-0.018 0.019,-0.031 0.037,-0.031 h 2.415 c 0.012,0 0.022,0.006 0.029,0.014 0.007,0.009 0.01,0.021 0.008,0.031 l -1.12,5.85 c -0.056,0.327 -0.079,0.759 -0.056,1.049 0.08,1.031 0.775,1.623 1.908,1.623 1.31,0 2.351,-1.023 2.652,-2.605 l 1.134,-5.93 c 0.003,-0.018 0.019,-0.031 0.037,-0.031 h 2.415 c 0.012,0 0.022,0.006 0.029,0.014 0.007,0.009 0.01,0.021 0.008,0.031 l -1.991,10.542 c -0.003,0.019 -0.019,0.03 -0.036,0.03 h -2.416 c -0.012,0 -0.021,-0.004 -0.029,-0.014 -0.007,-0.009 -0.01,-0.02 -0.008,-0.031 l 0.229,-1.23 c -0.676,0.714 -1.623,1.494 -3.009,1.494 z"
   id="path3326"
   inkscape:connector-curvature="0" />
		<path
   d="m 216.749,84.62 c -2.289,0 -4.729,-1.562 -4.962,-4.548 -0.13,-1.659 0.431,-3.3 1.537,-4.5 1.06,-1.149 2.547,-1.81 4.079,-1.81 2.514,0 3.794,1.525 4.334,2.435 0.011,0.018 0.006,0.039 -0.012,0.05 l -1.177,0.779 c -0.017,0.012 -0.04,0.007 -0.052,-0.01 -0.574,-0.849 -1.445,-1.82 -3.087,-1.82 -1.024,0 -2.033,0.467 -2.766,1.284 -0.871,0.945 -1.311,2.237 -1.208,3.546 0.162,2.074 1.775,3.16 3.286,3.16 1.072,0 1.974,-0.414 2.923,-1.347 0.007,-0.007 0.017,-0.011 0.026,-0.011 l 0,0 c 0.01,0 0.02,0.005 0.026,0.012 l 0.977,0.998 c 0.015,0.015 0.015,0.037 0,0.053 -1.156,1.18 -2.403,1.729 -3.924,1.729 z"
   id="path3328"
   inkscape:connector-curvature="0" />
		<path
   d="m 249.345,84.38 h -1.537 c -0.012,0 -0.022,-0.004 -0.029,-0.014 -0.007,-0.009 -0.01,-0.02 -0.008,-0.031 l 1.12,-5.85 c 0.055,-0.346 0.074,-0.818 0.048,-1.147 -0.104,-1.329 -0.951,-2.122 -2.267,-2.122 -1.505,0 -2.914,1.42 -3.276,3.305 l -1.081,5.829 c -0.004,0.018 -0.02,0.03 -0.037,0.03 h -1.537 c -0.012,0 -0.022,-0.004 -0.029,-0.014 -0.007,-0.009 -0.01,-0.02 -0.008,-0.031 l 1.1,-5.85 c 0.068,-0.317 0.097,-0.789 0.068,-1.147 -0.102,-1.31 -0.979,-2.122 -2.287,-2.122 -1.505,0 -2.913,1.42 -3.276,3.305 l -1.102,5.829 c -0.003,0.019 -0.019,0.03 -0.036,0.03 h -1.538 c -0.011,0 -0.021,-0.004 -0.028,-0.014 -0.008,-0.009 -0.011,-0.02 -0.008,-0.031 l 1.948,-10.321 c 0.003,-0.019 0.019,-0.031 0.036,-0.031 h 1.537 c 0.012,0 0.021,0.005 0.029,0.015 0.007,0.008 0.01,0.02 0.008,0.03 l -0.281,1.533 c 0.896,-1.084 1.803,-1.798 3.223,-1.798 1.491,0 2.654,0.852 3.127,2.281 0.88,-1.492 2.247,-2.281 3.96,-2.281 1.908,0 3.291,1.298 3.442,3.229 0.03,0.396 -0.041,0.857 -0.11,1.304 -0.016,0.102 -0.031,0.202 -0.045,0.302 l -1.089,5.752 c -0.004,0.018 -0.02,0.03 -0.037,0.03 z"
   id="path3330"
   inkscape:connector-curvature="0" />
		<path
   d="m 284.033,84.38 h -1.537 c -0.012,0 -0.022,-0.004 -0.029,-0.014 -0.007,-0.009 -0.01,-0.02 -0.008,-0.031 l 1.1,-5.85 c 0.069,-0.317 0.098,-0.789 0.068,-1.147 -0.104,-1.329 -1.019,-2.122 -2.447,-2.122 -1.612,0 -3.058,1.39 -3.436,3.305 l -1.102,5.829 c -0.003,0.019 -0.019,0.03 -0.036,0.03 h -1.537 c -0.012,0 -0.022,-0.004 -0.029,-0.014 -0.007,-0.009 -0.01,-0.02 -0.008,-0.031 l 1.948,-10.321 c 0.003,-0.019 0.019,-0.031 0.036,-0.031 h 1.537 c 0.012,0 0.021,0.005 0.029,0.015 0.007,0.008 0.01,0.02 0.008,0.03 l -0.281,1.533 c 0.753,-0.907 1.75,-1.798 3.382,-1.798 2.022,0 3.428,1.268 3.582,3.229 0.031,0.405 -0.014,0.931 -0.136,1.607 l -1.067,5.75 c -0.004,0.018 -0.019,0.031 -0.037,0.031 z"
   id="path3332"
   inkscape:connector-curvature="0" />
		<path
   d="m 286.876,87.635 c -0.844,0 -1.585,-0.23 -2.333,-0.726 -0.018,-0.011 -0.021,-0.033 -0.011,-0.052 l 0.748,-1.151 c 0.006,-0.01 0.015,-0.016 0.024,-0.018 0.011,0 0.021,0 0.029,0.008 0.386,0.283 1.087,0.506 1.596,0.506 0.927,0 1.653,-0.541 2.506,-1.866 L 286.756,74.03 c -0.003,-0.012 -10e-4,-0.023 0.006,-0.033 0.008,-0.009 0.019,-0.015 0.03,-0.015 h 1.597 c 0.018,0 0.032,0.012 0.037,0.029 l 2.089,8.53 4.829,-8.541 c 0.007,-0.011 0.02,-0.019 0.033,-0.019 h 1.736 c 0.014,0 0.026,0.008 0.033,0.019 0.006,0.013 0.006,0.026 -0.001,0.038 l -6.232,10.679 c -1.262,2.072 -2.432,2.918 -4.037,2.918 z"
   id="path3334"
   inkscape:connector-curvature="0" />
		<path
   d="m 52.01,84.38 h -1.58 c -0.012,0 -0.022,-0.004 -0.029,-0.014 -0.007,-0.009 -0.01,-0.02 -0.008,-0.031 L 52.81,71.577 50.098,72.38 c -0.011,0.002 -0.022,0 -0.032,-0.006 -0.009,-0.006 -0.015,-0.016 -0.016,-0.027 l -0.147,-1.378 c -0.002,-0.018 0.009,-0.034 0.025,-0.039 l 3.659,-1.198 c 0.004,-0.001 0.008,-0.002 0.012,-0.002 h 1.178 c 0.012,0 0.022,0.005 0.029,0.014 0.007,0.009 0.01,0.021 0.008,0.031 L 52.046,84.35 c -0.003,0.018 -0.019,0.03 -0.036,0.03 z"
   id="path3336"
   inkscape:connector-curvature="0" />
		<path
   d="m 23.694,84.62 c -2.755,0 -4.745,-1.779 -4.953,-4.428 -0.132,-1.697 0.467,-3.447 1.604,-4.68 1.054,-1.145 2.418,-1.75 3.944,-1.75 2.782,0 4.184,2.004 4.339,3.988 0.051,0.653 -0.019,1.316 -0.207,1.971 -0.005,0.016 -0.02,0.026 -0.036,0.026 h -8.051 c -0.005,0.126 0.005,0.254 0.015,0.378 0.146,1.871 1.45,3.081 3.321,3.081 1.373,0 2.214,-0.483 3.055,-1.209 0.008,-0.006 0.019,-0.009 0.027,-0.009 0.01,0.001 0.019,0.005 0.025,0.013 l 0.878,1.019 c 0.013,0.015 0.012,0.039 -0.004,0.052 -0.797,0.721 -1.968,1.548 -3.957,1.548 z m -3.239,-6.105 h 6.571 c 0.044,-0.191 0.054,-0.446 0.029,-0.758 -0.099,-1.268 -0.873,-2.621 -2.745,-2.621 -1.039,0 -1.99,0.424 -2.751,1.227 -0.52,0.564 -0.901,1.308 -1.104,2.152 z"
   id="path3338"
   inkscape:connector-curvature="0" />
		<path
   d="m 81.913,84.601 c -1.89,0 -3.303,-1.197 -3.438,-2.91 -0.079,-1.01 0.193,-1.872 0.81,-2.564 0.788,-0.832 2.046,-1.291 3.542,-1.291 1.037,0 2.083,0.162 3.288,0.511 l 0.036,-0.142 c 0.04,-0.266 0.074,-0.556 0.05,-0.866 -0.081,-1.037 -0.896,-1.563 -2.423,-1.563 -0.953,0 -1.9,0.193 -2.815,0.576 -0.011,0.004 -0.021,0.004 -0.03,0 -0.01,-0.005 -0.018,-0.014 -0.021,-0.024 L 80.36,74.37 c -0.006,-0.02 0.004,-0.038 0.021,-0.045 1.177,-0.473 2.392,-0.703 3.713,-0.703 2.739,0 4.339,1.17 4.505,3.291 0.038,0.492 -0.01,0.956 -0.101,1.546 l -1.116,5.891 c -0.003,0.019 -0.019,0.03 -0.037,0.03 H 85.01 c -0.011,0 -0.021,-0.004 -0.028,-0.014 -0.007,-0.008 -0.011,-0.02 -0.009,-0.031 l 0.226,-1.259 c -0.876,1.011 -1.98,1.525 -3.286,1.525 z m 1.396,-5.133 c -0.844,0 -1.52,0.238 -1.955,0.688 -0.305,0.332 -0.446,0.763 -0.409,1.25 0.066,0.839 0.769,1.383 1.791,1.383 1.434,0 2.732,-1.069 3.021,-2.486 l 0.096,-0.446 C 85.37,79.706 84.427,79.468 83.309,79.468 z"
   id="path3340"
   inkscape:connector-curvature="0" />
		<path
   d="m 104.86,84.601 c -1.89,0 -3.303,-1.197 -3.437,-2.91 -0.079,-1.01 0.193,-1.872 0.81,-2.564 0.788,-0.832 2.045,-1.291 3.541,-1.291 1.038,0 2.084,0.162 3.288,0.511 l 0.037,-0.142 c 0.04,-0.266 0.074,-0.556 0.05,-0.866 -0.081,-1.037 -0.896,-1.563 -2.424,-1.563 -0.953,0 -1.9,0.193 -2.814,0.576 -0.011,0.004 -0.022,0.004 -0.031,0 -0.01,-0.005 -0.017,-0.014 -0.02,-0.024 l -0.553,-1.956 c -0.005,-0.02 0.005,-0.038 0.022,-0.045 1.177,-0.473 2.391,-0.703 3.712,-0.703 2.739,0 4.339,1.17 4.505,3.291 0.038,0.492 -0.01,0.956 -0.1,1.546 l -1.117,5.891 c -0.003,0.019 -0.019,0.03 -0.036,0.03 h -2.336 c -0.012,0 -0.021,-0.004 -0.029,-0.014 -0.007,-0.008 -0.01,-0.02 -0.008,-0.031 l 0.226,-1.259 c -0.875,1.009 -1.98,1.523 -3.286,1.523 z m 1.396,-5.133 c -0.844,0 -1.52,0.238 -1.955,0.688 -0.305,0.332 -0.446,0.764 -0.408,1.25 0.065,0.839 0.769,1.383 1.79,1.383 1.434,0 2.732,-1.069 3.021,-2.486 l 0.095,-0.446 c -0.482,-0.151 -1.424,-0.389 -2.543,-0.389 z"
   id="path3342"
   inkscape:connector-curvature="0" />
		<path
   d="m 117.563,87.615 c -2.046,0 -4.123,-0.607 -5.559,-1.625 -0.008,-0.006 -0.014,-0.015 -0.016,-0.024 -0.001,-0.01 0.001,-0.02 0.007,-0.027 l 1.207,-1.678 c 0.012,-0.018 0.034,-0.021 0.052,-0.01 1.211,0.859 2.637,1.332 4.016,1.332 1.075,0 1.908,-0.312 2.475,-0.927 0.435,-0.472 0.719,-1.124 0.922,-2.118 l 0.105,-0.518 c -1.107,1.078 -2.107,1.521 -3.428,1.521 -2.031,0 -4.19,-1.322 -4.389,-3.849 -0.129,-1.659 0.404,-3.229 1.504,-4.421 1.012,-1.099 2.429,-1.729 3.886,-1.729 2.033,0 3.006,1.079 3.62,2.052 l 0.333,-1.801 c 0.004,-0.018 0.02,-0.031 0.037,-0.031 h 2.416 c 0.011,0 0.021,0.006 0.028,0.014 0.008,0.009 0.011,0.021 0.008,0.031 l -1.635,8.705 c -0.361,1.879 -0.747,2.79 -1.525,3.613 -0.936,1.017 -2.228,1.49 -4.064,1.49 z m 1.183,-11.94 c -0.883,0 -1.717,0.364 -2.347,1.026 -0.646,0.7 -0.96,1.612 -0.886,2.567 0.107,1.37 1.094,2.221 2.575,2.221 0.941,0 1.846,-0.396 2.481,-1.085 0.643,-0.697 0.946,-1.53 0.878,-2.407 -0.105,-1.367 -1.217,-2.322 -2.701,-2.322 z"
   id="path3344"
   inkscape:connector-curvature="0" />
		<path
   d="m 130.755,84.62 c -2.977,0 -4.966,-1.781 -5.189,-4.647 -0.131,-1.673 0.463,-3.4 1.588,-4.62 1.074,-1.167 2.552,-1.81 4.159,-1.81 1.302,0 2.423,0.414 3.242,1.196 0.766,0.73 1.236,1.771 1.327,2.932 0.059,0.746 -0.04,1.525 -0.286,2.252 -0.005,0.016 -0.02,0.025 -0.035,0.025 h -7.626 c 0.145,1.641 1.229,2.619 2.905,2.619 0.948,0 1.699,-0.292 2.592,-1.01 0.016,-0.012 0.039,-0.01 0.053,0.006 l 1.278,1.537 c 0.013,0.016 0.011,0.039 -0.004,0.052 -1.103,0.988 -2.412,1.468 -4.004,1.468 z m -2.678,-6.345 h 5.393 c 0.043,-0.187 0.055,-0.433 0.034,-0.698 -0.097,-1.242 -0.926,-1.982 -2.217,-1.982 -0.904,0 -1.708,0.355 -2.327,1.027 -0.407,0.441 -0.712,1.012 -0.883,1.653 z"
   id="path3346"
   inkscape:connector-curvature="0" />
		<path
   d="m 141.348,84.601 c -1.165,0 -2.249,-0.434 -3.054,-1.22 -0.843,-0.823 -1.344,-1.974 -1.45,-3.328 -0.144,-1.839 0.409,-3.536 1.556,-4.78 1.013,-1.099 2.414,-1.729 3.846,-1.729 1.609,0 2.82,0.666 3.699,2.033 l 1.098,-5.815 c 0.003,-0.018 0.019,-0.031 0.036,-0.031 h 2.416 c 0.011,0 0.021,0.005 0.028,0.014 0.008,0.009 0.011,0.021 0.008,0.031 l -2.753,14.575 c -0.003,0.019 -0.019,0.03 -0.037,0.03 h -2.416 c -0.011,0 -0.021,-0.004 -0.028,-0.014 -0.008,-0.009 -0.011,-0.02 -0.008,-0.031 l 0.245,-1.268 c -0.975,1.044 -1.991,1.533 -3.186,1.533 z m 1.34,-8.906 c -0.852,0 -1.65,0.356 -2.249,1.006 -0.741,0.805 -1.112,1.966 -1.017,3.187 0.122,1.555 1.174,2.561 2.682,2.561 0.885,0 1.745,-0.396 2.361,-1.085 0.766,-0.831 1.154,-1.941 1.067,-3.048 -0.12,-1.544 -1.29,-2.621 -2.844,-2.621 z"
   id="path3348"
   inkscape:connector-curvature="0" />
		<path
   d="m 175.885,84.62 c -1.471,0 -2.763,-0.476 -3.738,-1.376 -0.941,-0.868 -1.52,-2.101 -1.627,-3.471 -0.124,-1.597 0.432,-3.193 1.527,-4.381 1.077,-1.192 2.56,-1.85 4.176,-1.85 1.472,0 2.764,0.477 3.738,1.378 0.942,0.872 1.521,2.11 1.628,3.488 0.125,1.605 -0.432,3.195 -1.528,4.362 -1.078,1.194 -2.56,1.85 -4.176,1.85 z m 0.362,-8.905 c -0.817,0 -1.609,0.357 -2.229,1.007 -0.71,0.75 -1.115,1.914 -1.033,2.967 0.133,1.702 1.235,2.76 2.877,2.76 0.847,0 1.658,-0.366 2.229,-1.006 0.71,-0.751 1.116,-1.916 1.033,-2.967 -0.134,-1.704 -1.236,-2.761 -2.877,-2.761 z"
   id="path3350"
   inkscape:connector-curvature="0" />
		<path
   d="m 198.72,84.601 c -1.165,0 -2.249,-0.434 -3.054,-1.22 -0.842,-0.823 -1.344,-1.974 -1.449,-3.328 -0.144,-1.839 0.408,-3.536 1.555,-4.78 1.013,-1.099 2.414,-1.729 3.846,-1.729 1.609,0 2.82,0.666 3.699,2.033 l 1.098,-5.815 c 0.003,-0.018 0.019,-0.031 0.036,-0.031 h 2.416 c 0.012,0 0.022,0.005 0.029,0.014 0.007,0.009 0.01,0.021 0.008,0.031 l -2.754,14.575 c -0.003,0.019 -0.019,0.03 -0.037,0.03 h -2.416 c -0.011,0 -0.021,-0.004 -0.028,-0.014 -0.008,-0.009 -0.011,-0.02 -0.008,-0.031 l 0.245,-1.268 c -0.975,1.044 -1.991,1.533 -3.186,1.533 z m 1.34,-8.906 c -0.852,0 -1.65,0.356 -2.249,1.006 -0.741,0.804 -1.111,1.966 -1.016,3.187 0.121,1.555 1.173,2.561 2.681,2.561 0.885,0 1.745,-0.396 2.361,-1.085 0.766,-0.831 1.154,-1.941 1.068,-3.048 -0.121,-1.544 -1.291,-2.621 -2.845,-2.621 z"
   id="path3352"
   inkscape:connector-curvature="0" />
		<path
   d="m 227.293,84.62 c -2.782,0 -4.876,-1.92 -5.091,-4.667 -0.126,-1.604 0.432,-3.193 1.528,-4.361 1.087,-1.179 2.542,-1.829 4.098,-1.829 2.794,0 4.896,1.911 5.11,4.646 0.123,1.576 -0.434,3.173 -1.526,4.382 -1.072,1.163 -2.573,1.829 -4.119,1.829 z m 0.541,-9.424 c -1.045,0 -2.041,0.456 -2.806,1.285 -0.846,0.918 -1.293,2.199 -1.197,3.426 0.157,2.011 1.48,3.26 3.454,3.26 1.059,0 2.056,-0.449 2.808,-1.266 0.846,-0.918 1.294,-2.198 1.197,-3.426 -0.158,-2.023 -1.482,-3.279 -3.456,-3.279 z"
   id="path3354"
   inkscape:connector-curvature="0" />
		<path
   d="m 252.528,87.575 h -1.538 c -0.011,0 -0.021,-0.005 -0.028,-0.014 -0.008,-0.009 -0.011,-0.02 -0.008,-0.031 l 2.557,-13.517 c 0.003,-0.019 0.019,-0.031 0.037,-0.031 h 1.537 c 0.011,0 0.021,0.005 0.028,0.015 0.008,0.008 0.011,0.02 0.008,0.03 l -0.312,1.631 c 1.058,-1.274 2.268,-1.896 3.692,-1.896 2.43,0 4.269,1.812 4.472,4.408 0.141,1.799 -0.427,3.534 -1.557,4.76 -1.004,1.09 -2.343,1.689 -3.77,1.689 -2.255,0 -3.446,-1.326 -4.057,-2.479 l -1.026,5.403 c -10e-4,0.019 -0.017,0.032 -0.035,0.032 z m 5.641,-12.379 c -1.076,0 -2.14,0.496 -2.919,1.364 -0.895,0.97 -1.353,2.227 -1.257,3.446 0.145,1.843 1.578,3.18 3.408,3.18 1.024,0 1.988,-0.42 2.714,-1.186 0.857,-0.951 1.286,-2.295 1.178,-3.686 -0.147,-1.864 -1.402,-3.118 -3.124,-3.118 z"
   id="path3356"
   inkscape:connector-curvature="0" />
		<path
   d="m 267.476,84.601 c -1.594,0 -3.379,-0.904 -3.534,-2.891 -0.076,-0.977 0.199,-1.836 0.796,-2.484 0.767,-0.832 2.024,-1.29 3.541,-1.29 1.12,0 2.327,0.18 3.688,0.55 l 0.033,-0.2 c 0.06,-0.316 0.085,-0.689 0.064,-0.948 -0.105,-1.349 -1.115,-2.062 -2.922,-2.062 -1.198,0 -2.118,0.271 -2.859,0.536 -0.011,0.003 -0.021,0.003 -0.03,-0.003 -0.009,-0.004 -0.016,-0.013 -0.019,-0.021 l -0.359,-1.278 c -0.006,-0.019 0.004,-0.038 0.022,-0.046 1.12,-0.43 2.163,-0.621 3.379,-0.621 2.598,0 4.18,1.177 4.34,3.229 0.034,0.431 -0.005,0.938 -0.109,1.429 l -1.1,5.849 c -0.003,0.018 -0.019,0.03 -0.037,0.03 h -1.497 c -0.011,0 -0.021,-0.004 -0.028,-0.014 -0.008,-0.009 -0.011,-0.02 -0.008,-0.031 l 0.284,-1.471 c -0.963,1.153 -2.188,1.737 -3.645,1.737 z m 0.952,-5.452 c -1.021,0 -1.831,0.293 -2.342,0.846 -0.392,0.405 -0.573,0.934 -0.526,1.529 0.085,1.095 0.989,1.803 2.302,1.803 1.812,0 3.435,-1.309 3.776,-3.045 l 0.137,-0.686 c -1.039,-0.287 -2.226,-0.447 -3.347,-0.447 z"
   id="path3358"
   inkscape:connector-curvature="0" />
		<path
   d="m 43.58,84.38 h -1.521 c -0.011,0 -0.021,-0.004 -0.028,-0.014 -0.008,-0.009 -0.011,-0.02 -0.008,-0.031 l 0.659,-3.47 h -3.545 l -0.663,3.484 c -0.003,0.019 -0.019,0.03 -0.036,0.03 h -1.521 c -0.012,0 -0.022,-0.004 -0.029,-0.014 -0.007,-0.009 -0.01,-0.02 -0.008,-0.031 l 0.66,-3.47 h -2.588 c -0.012,0 -0.022,-0.005 -0.029,-0.014 -0.007,-0.009 -0.01,-0.02 -0.008,-0.03 l 0.284,-1.494 c 0.003,-0.018 0.019,-0.03 0.037,-0.03 h 2.602 l 0.782,-4.109 h -2.588 c -0.011,0 -0.021,-0.005 -0.028,-0.014 -0.008,-0.009 -0.011,-0.021 -0.008,-0.03 l 0.284,-1.494 c 0.003,-0.019 0.019,-0.031 0.036,-0.031 h 2.603 l 0.663,-3.483 c 0.003,-0.019 0.019,-0.03 0.037,-0.03 h 1.521 c 0.011,0 0.021,0.004 0.028,0.014 0.008,0.008 0.011,0.02 0.008,0.03 l -0.66,3.47 h 3.545 l 0.664,-3.483 c 0.003,-0.019 0.019,-0.03 0.036,-0.03 h 1.521 c 0.012,0 0.022,0.004 0.029,0.014 0.007,0.008 0.01,0.02 0.008,0.03 l -0.66,3.47 h 2.523 c 0.012,0 0.022,0.005 0.029,0.014 0.007,0.01 0.01,0.021 0.008,0.031 l -0.285,1.493 c -0.003,0.019 -0.019,0.031 -0.036,0.031 H 45.36 l -0.782,4.109 h 2.524 c 0.011,0 0.021,0.005 0.028,0.013 0.008,0.01 0.011,0.021 0.008,0.031 l -0.284,1.494 c -0.003,0.018 -0.019,0.03 -0.036,0.03 H 44.28 l -0.663,3.484 c -0.003,0.018 -0.018,0.03 -0.037,0.03 z m -4.144,-5.083 h 3.545 l 0.782,-4.109 h -3.545 l -0.782,4.109 z"
   id="path3360"
   inkscape:connector-curvature="0" />
	</g>
	<g
   id="g3362">
		<path
   clip-rule="evenodd"
   d="m 33.448,16.843 c -1.184,2.496 -0.713,4.545 1.053,4.576 1.766,0.031 4.159,-1.965 5.342,-4.459 1.185,-2.498 0.713,-4.546 -1.053,-4.578 -1.766,-0.029 -4.158,1.967 -5.342,4.461 z m 14.39,-9.01 c 0.015,0.006 0.024,0.021 0.024,0.037 0,0.006 -0.001,0.012 -0.002,0.015 -1.056,2.991 -2.807,6.394 -4.542,8.976 -3.655,5.428 -8.903,8.852 -11.718,7.645 -2.813,-1.206 -2.137,-6.586 1.522,-12.018 0.823,-1.219 1.726,-2.335 2.661,-3.321 0.007,-0.009 0.012,-0.019 0.012,-0.029 0,-0.022 -0.019,-0.042 -0.041,-0.042 0,0 -0.005,0 -0.006,0.002 -1.149,0.159 -2.314,0.386 -3.49,0.684 -0.008,0 -0.016,0.007 -0.021,0.014 C 19.887,24.94 14.631,44.611 15.354,62.161 l 0,0 c 0,0.023 -0.018,0.041 -0.041,0.041 -0.005,0 -0.011,0 -0.016,-0.002 C 8.017,59.266 2.696,52.232 2.142,43.327 L 2.135,43.223 C 1.216,27.379 13.847,11.148 30.351,6.971 36.745,5.351 42.787,5.778 47.838,7.833 z"
   id="path3364"
   inkscape:connector-curvature="0"
   style="fill:#c50022;fill-rule:evenodd" />
		<path
   d="m 43.169,50.567 c -1.199,0.833 -2.451,1.604 -3.744,2.297 -0.006,0.002 -0.013,0.004 -0.019,0.004 -0.022,0 -0.041,-0.018 -0.042,-0.039 -0.241,-3.805 -1.061,-7.49 -2.478,-10.557 -3.778,-8.186 -10.382,-8.816 -14.745,-1.404 -2.669,4.534 -3.885,11.033 -3.556,17.271 0,0.018 0.012,0.033 0.027,0.037 4.629,1.45 9.962,1.609 15.651,0.174 C 50.742,54.151 63.349,37.937 62.432,22.108 61.627,8.204 50.659,-0.78 36.833,0.054 c -0.01,0 -0.019,0.004 -0.025,0.012 -1.345,1.359 -2.604,2.733 -3.784,4.12 -0.006,0.007 -0.01,0.017 -0.01,0.025 0,0.023 0.019,0.042 0.041,0.042 10e-4,0 0.004,0 0.006,-0.001 8.102,-1.025 14.596,0.621 18.833,3.997 0.01,0.008 0.016,0.02 0.016,0.031 0,0.009 -0.002,0.018 -0.006,0.023 -14.601,20.584 -12.793,32.311 -8.72,42.214 0.002,0.005 0.003,0.01 0.003,0.016 0,0.015 -0.007,0.027 -0.018,0.034 z"
   id="path3366"
   inkscape:connector-curvature="0" />
	</g>
	<g
   id="g3368">
		<path
   d="m 179.36,27.02 c 3.447,0 5.992,0.75 7.222,1.444 0.015,0.009 0.023,0.026 0.02,0.044 l -1.189,6.241 c -0.002,0.014 -0.012,0.023 -0.023,0.029 -0.011,0.006 -0.025,0.006 -0.037,-10e-4 -1.395,-0.76 -3.805,-1.569 -6.393,-1.569 -2.173,0 -3.588,0.91 -3.588,2.434 0,1.093 1.083,2.072 3.375,3.189 2.986,1.492 6.359,3.701 6.359,7.696 0,2.607 -0.87,4.788 -2.583,6.487 -2.278,2.262 -5.975,3.495 -10.419,3.461 -3.419,-0.057 -6.876,-0.943 -8.606,-2.195 -0.013,-0.01 -0.019,-0.026 -0.017,-0.043 l 1.193,-6.279 c 0.002,-0.012 0.012,-0.024 0.024,-0.03 0.013,-0.005 0.026,-0.003 0.038,0.004 1.852,1.161 5.498,2.413 8.174,2.413 2.074,0 3.472,-0.957 3.472,-2.492 0,-1.392 -0.982,-2.364 -3.491,-3.592 -3.969,-1.984 -5.954,-4.5 -5.954,-7.465 0,-5.834 4.968,-9.776 12.423,-9.776 z"
   id="path3370"
   inkscape:connector-curvature="0" />
		<path
   d="m 132.843,27.078 c 2.116,0 4.275,0.368 5.775,0.981 0.019,0.008 0.029,0.027 0.025,0.047 l -1.281,6.723 c -0.003,0.013 -0.011,0.023 -0.022,0.029 -0.014,0.004 -0.027,0.006 -0.039,-0.002 -1.293,-0.723 -2.79,-1.072 -4.574,-1.072 -5.965,0 -9.519,5.2 -9.519,10.211 0,4.252 2.84,5.775 5.487,5.775 2.367,0 4.378,-0.518 6.935,-1.775 0.015,-0.008 0.031,-0.006 0.044,0.003 0.014,0.01 0.019,0.026 0.016,0.041 l -1.308,6.906 c -0.003,0.012 -0.012,0.023 -0.023,0.029 -1.938,0.938 -4.938,1.501 -8.024,1.501 -7.239,0 -11.906,-4.535 -11.906,-11.559 -0.001,-10.169 7.912,-17.838 18.414,-17.838 z"
   id="path3372"
   inkscape:connector-curvature="0" />
		<path
   d="m 98.931,35.063 c -2.251,2.252 -3.94,6.481 -3.938,9.848 0.001,2.956 1.097,4.797 3.003,4.797 3.049,0 5.675,-3.188 6.578,-7.857 0.203,-1.043 0.408,-2.104 0.556,-3.048 0.149,-0.943 0.24,-1.775 0.214,-2.356 -0.098,-1.994 -1.136,-3.069 -2.997,-3.069 -1.14,-10e-4 -2.321,0.588 -3.416,1.685 z m 3.109,20.823 c -0.008,-0.012 -0.011,-0.023 -0.008,-0.035 l 0.249,-1.262 c 0.224,-1.135 1.144,-2.701 1.492,-3.215 l 0.054,-0.094 c 0.121,-0.272 -0.057,-0.592 -0.275,-0.689 -0.263,-0.113 -0.592,-0.025 -0.715,0.249 l -0.034,0.104 c -0.149,0.604 -0.46,1.998 -1.761,3.188 -1.649,1.508 -3.936,2.403 -6.425,2.403 -5.568,0 -8.085,-4.943 -8.088,-9.891 -0.004,-5.62 2.204,-11.186 5.902,-14.887 3.098,-3.1 7.096,-4.737 11.565,-4.737 3.4,0.014 5.916,0.998 7.492,2.908 2.333,2.827 2.142,7.071 1.56,10.157 l -3.016,15.781 c -0.003,0.02 -0.02,0.034 -0.041,0.034 h -7.919 c -0.012,0 -0.024,-0.005 -0.032,-0.014 z"
   id="path3374"
   inkscape:connector-curvature="0" />
		<path
   d="m 198.959,50.173 c 4.401,0 7.634,-6.248 7.634,-11.764 0,-1.332 -0.314,-4.566 -3.384,-4.566 -3.121,0 -5.756,3.556 -6.777,8.949 -0.35,1.844 -1.328,7.381 2.527,7.381 z m 7.207,-23.153 c 5.546,0 9.142,4.203 9.142,10.755 0,6.871 -3.299,13.916 -9.245,17.086 -4.614,2.461 -8.811,1.905 -10.892,0.289 -0.497,-0.387 -0.618,-1.405 -0.673,-1.808 l -0.025,-0.105 c -0.092,-0.284 -0.43,-0.396 -0.689,-0.304 -0.227,0.081 -0.432,0.354 -0.339,0.638 l 0.043,0.099 c 0.379,0.674 0.664,1.213 0.559,1.771 l -1.794,9.48 c -0.003,0.02 -0.021,0.035 -0.04,0.035 h -8.298 c -0.012,0 -0.022,-0.006 -0.031,-0.016 -0.008,-0.01 -0.011,-0.022 -0.008,-0.034 l 7.121,-37.454 c 0.004,-0.02 0.021,-0.034 0.041,-0.034 l 7.296,0.005 c 0.012,0 0.023,0.006 0.032,0.015 0.008,0.011 0.011,0.023 0.008,0.034 l -0.245,1.293 -0.002,0.008 c -0.388,2.039 -0.995,2.823 -1.39,3.307 l -0.062,0.09 c -0.145,0.264 0.014,0.548 0.221,0.664 0.209,0.115 0.582,0.123 0.728,-0.139 l 0.042,-0.098 c 0.203,-0.59 0.68,-2.044 1.835,-3.035 l 0.004,-0.003 c 1.916,-1.641 4.243,-2.539 6.661,-2.539 z"
   id="path3376"
   inkscape:connector-curvature="0" />
		<path
   d="m 143.998,17.686 h 8.238 c 0.012,0 0.023,0.006 0.031,0.015 0.009,0.012 0.011,0.023 0.009,0.035 l -4.298,22.605 c -0.002,0.015 0.002,0.028 0.016,0.035 0.013,0.006 0.028,0.002 0.037,-0.009 l 11.061,-12.756 c 0.008,-0.01 0.02,-0.015 0.031,-0.015 h 9.035 c 0.017,0 0.032,0.01 0.039,0.025 0.002,0.006 0.004,0.012 0.004,0.018 0,0.009 -0.004,0.02 -0.011,0.027 l -11.477,12.928 7.001,15.191 c 0.004,0.006 0.004,0.012 0.004,0.017 0,0.009 -0.003,0.017 -0.006,0.022 -0.009,0.013 -0.021,0.02 -0.035,0.02 h -8.92 c -0.016,0 -0.031,-0.009 -0.038,-0.023 l -6.772,-15.019 c -0.005,-0.013 -0.017,-0.02 -0.03,-0.019 -0.015,10e-4 -0.023,0.011 -0.027,0.024 l -2.852,15.003 c -0.004,0.02 -0.021,0.033 -0.041,0.033 h -8.238 c -0.013,0 -0.024,-0.006 -0.032,-0.015 -0.009,-0.011 -0.011,-0.023 -0.009,-0.034 l 7.239,-38.076 c 0.004,-0.019 0.022,-0.032 0.041,-0.032 z"
   id="path3378"
   inkscape:connector-curvature="0" />
		<path
   d="m 87.92,26.962 c 0.496,0 1.105,0.053 1.552,0.134 0.011,0.002 0.02,0.008 0.027,0.018 0.006,0.011 0.008,0.021 0.006,0.031 l -1.613,8.122 c -0.002,0.01 -0.008,0.02 -0.018,0.025 -0.009,0.007 -0.021,0.008 -0.031,0.007 -0.293,-0.062 -0.758,-0.132 -1.306,-0.132 -5.689,0 -7.909,5.561 -8.771,10.16 L 75.745,56.14 c -0.004,0.02 -0.021,0.033 -0.041,0.033 H 67.41 c -0.013,0 -0.025,-0.006 -0.032,-0.015 -0.008,-0.01 -0.012,-0.022 -0.009,-0.035 l 5.418,-28.492 c 0.004,-0.02 0.021,-0.034 0.042,-0.034 h 7.295 c 0.013,0 0.024,0.004 0.032,0.015 0.006,0.007 0.01,0.017 0.01,0.026 l -0.367,1.929 -0.004,0.021 c -0.347,1.82 -0.906,2.895 -1.266,3.404 l -0.054,0.094 c -0.127,0.271 0.072,0.552 0.289,0.652 0.217,0.1 0.565,0.075 0.691,-0.195 l 0.036,-0.102 c 0.161,-0.605 0.491,-1.913 1.617,-3.176 1.938,-2.142 4.283,-3.303 6.812,-3.303 z"
   id="path3380"
   inkscape:connector-curvature="0" />
		<path
   d="m 284.854,35.528 c 0,-1.457 -1.208,-2.377 -3.012,-2.377 -2.791,0 -4.802,1.76 -5.868,3.832 -0.771,1.49 -1.043,1.639 -1.753,2.086 l -0.09,0.061 c -0.229,0.191 -0.153,0.53 0,0.715 0.155,0.182 0.467,0.308 0.696,0.115 l 0.075,-0.078 c 0.576,-0.688 0.712,-0.943 2.906,-1.033 3.362,-0.135 5.376,-0.645 6.357,-1.617 0.464,-0.46 0.689,-1.019 0.689,-1.704 z m -11.563,8.774 c 0.763,0.689 1.274,1.699 1.358,2.02 0.141,0.543 0.36,1.087 0.658,1.504 1.085,1.371 3.004,2.117 5.383,2.117 3.477,0 6.489,-0.844 9.766,-2.732 0.015,-0.008 0.032,-0.008 0.045,0.002 0.014,0.01 0.02,0.025 0.018,0.041 l -1.321,6.943 c -0.002,0.013 -0.01,0.023 -0.021,0.029 -3.99,2.031 -8.672,2.252 -10.502,2.252 -7.797,0 -12.254,-4.336 -12.254,-11.906 0,-4.365 1.604,-8.739 4.396,-12 3.064,-3.581 7.349,-5.551 12.062,-5.551 5.898,0 9.833,3.427 9.833,8.508 0,2.35 -0.765,4.282 -2.271,5.75 -2.537,2.473 -7.118,3.714 -13.996,3.756 -1.649,-10e-4 -2.025,-0.834 -2.317,-1.387 l -0.059,-0.089 c -0.185,-0.237 -0.537,-0.187 -0.726,-0.038 -0.187,0.146 -0.312,0.469 -0.128,0.703 l 0.076,0.078 z"
   id="path3382"
   inkscape:connector-curvature="0" />
		<path
   d="m 292.748,52.953 c -0.155,1.728 1.104,3.108 2.828,3.108 1.758,0 3.327,-1.438 3.484,-3.197 0.155,-1.73 -1.105,-3.111 -2.828,-3.111 -1.756,0 -3.324,1.436 -3.484,3.2 z m -0.495,-0.044 c 0.183,-2.019 1.963,-3.654 3.979,-3.654 2.016,0 3.505,1.636 3.325,3.654 -0.184,2.015 -1.965,3.65 -3.981,3.65 -2.016,0 -3.505,-1.635 -3.323,-3.65 z m 2.852,-2.156 c 0.002,-0.008 0.009,-0.015 0.018,-0.015 h 0.915 l 0.009,10e-4 c 0.235,0.004 0.39,0.005 0.509,0.014 0.16,0.012 0.28,0.037 0.404,0.08 0.465,0.154 0.729,0.522 0.729,0.992 0,0.08 -0.009,0.164 -0.026,0.25 -0.106,0.576 -0.47,1.045 -1.14,1.229 l 0.587,1.731 c 0,0.002 10e-4,0.003 10e-4,0.006 0,0.003 -10e-4,0.006 -0.003,0.009 -0.004,0.006 -0.009,0.008 -0.015,0.008 h -0.596 c -0.007,0 -0.014,-0.005 -0.016,-0.011 l -0.561,-1.649 -0.366,0.009 h -0.014 -0.404 l -0.308,1.638 c -10e-4,0.008 -0.01,0.014 -0.018,0.014 h -0.493 c -0.005,0 -0.011,-0.002 -0.015,-0.007 -0.002,-0.004 -0.005,-0.008 -0.005,-0.014 l 0.312,-1.652 0.003,-0.021 0.245,-1.296 0.248,-1.316 z m 0.835,0.515 h -0.401 l -0.15,0.808 -0.151,0.802 h 0.395 0.045 c 0.203,-0.004 0.337,-0.006 0.444,-0.013 0.118,-0.008 0.206,-0.025 0.303,-0.055 0.38,-0.109 0.646,-0.387 0.712,-0.74 0.067,-0.351 -0.094,-0.626 -0.431,-0.733 -0.086,-0.032 -0.163,-0.046 -0.28,-0.056 -0.105,-0.007 -0.238,-0.008 -0.439,-0.013 h -0.047 z"
   id="path3384"
   inkscape:connector-curvature="0" />
		<path
   d="m 262.18,27.078 c 2.117,0 4.275,0.368 5.775,0.981 0.019,0.008 0.029,0.027 0.026,0.047 l -1.281,6.723 c -0.004,0.013 -0.012,0.023 -0.023,0.029 -0.013,0.004 -0.027,0.006 -0.039,-0.002 -1.292,-0.723 -2.79,-1.072 -4.573,-1.072 -5.965,0 -9.52,5.2 -9.52,10.211 0,4.252 2.841,5.775 5.488,5.775 2.367,0 4.378,-0.518 6.934,-1.775 0.016,-0.008 0.032,-0.006 0.045,0.003 0.013,0.01 0.019,0.026 0.015,0.041 l -1.308,6.906 c -0.002,0.012 -0.012,0.023 -0.023,0.029 -1.938,0.938 -4.938,1.501 -8.023,1.501 -7.24,0 -11.906,-4.535 -11.906,-11.559 -0.001,-10.169 7.911,-17.838 18.413,-17.838 z"
   id="path3386"
   inkscape:connector-curvature="0" />
		<path
   d="m 228.269,35.063 c -2.251,2.252 -3.941,6.481 -3.938,9.848 0.001,2.956 1.097,4.797 3.002,4.797 3.049,0 5.676,-3.188 6.579,-7.857 0.202,-1.043 0.407,-2.104 0.556,-3.048 0.149,-0.944 0.24,-1.775 0.213,-2.356 -0.098,-1.994 -1.136,-3.069 -2.996,-3.069 -1.141,-10e-4 -2.321,0.588 -3.416,1.685 z m 3.108,20.823 c -0.008,-0.012 -0.01,-0.023 -0.008,-0.035 l 0.249,-1.262 c 0.225,-1.135 1.145,-2.701 1.492,-3.215 l 0.054,-0.094 c 0.121,-0.272 -0.056,-0.592 -0.275,-0.689 -0.263,-0.113 -0.592,-0.025 -0.715,0.249 l -0.033,0.104 c -0.15,0.604 -0.46,1.998 -1.761,3.188 -1.65,1.508 -3.937,2.403 -6.425,2.403 -5.569,0 -8.085,-4.943 -8.089,-9.891 -0.003,-5.62 2.204,-11.186 5.903,-14.887 3.097,-3.1 7.096,-4.737 11.564,-4.737 3.401,0.014 5.916,0.998 7.492,2.908 2.333,2.827 2.143,7.071 1.56,10.157 l -3.015,15.781 c -0.004,0.02 -0.021,0.034 -0.041,0.034 h -7.92 c -0.012,0 -0.023,-0.005 -0.032,-0.014 z"
   id="path3388"
   inkscape:connector-curvature="0" />
	</g>
</g>
</svg>