<?xml version="1.0" encoding="utf-8"?>
<!-- Generator: Adobe Illustrator 17.0.0, SVG Export Plug-In . SVG Version: 6.00 Build 0)  -->
<!DOCTYPE svg PUBLIC "-//W3C//DTD SVG 1.1//EN" "http://www.w3.org/Graphics/SVG/1.1/DTD/svg11.dtd">
<svg version="1.1" id="Layer_1" xmlns="http://www.w3.org/2000/svg" xmlns:xlink="http://www.w3.org/1999/xlink" x="0px" y="0px"
	 width="534.622px" height="534.624px" viewBox="0 0 534.622 534.624" enable-background="new 0 0 534.622 534.624"
	 xml:space="preserve">
<path fill="#010101" d="M534.622,300.726v217.191c0,9.226-7.481,16.707-16.707,16.707H16.706c-4.552,0-8.908-1.856-12.057-5.143
	c-3.149-3.284-4.825-7.713-4.634-12.257l16.707-400.968c0.371-8.951,7.734-16.014,16.691-16.014h100.242
	c8.884,0,16.217,6.954,16.682,15.828l14.737,279.97l107.131-107.127c3.194-3.198,7.468-4.895,11.816-4.895
	c2.149,0,4.323,0.416,6.392,1.273c6.24,2.586,10.311,8.676,10.311,15.434v76.613l88.43-88.426c3.194-3.198,7.468-4.895,11.816-4.895
	c2.149,0,4.323,0.416,6.392,1.273c6.24,2.586,10.311,8.676,10.311,15.434v76.613l88.43-88.426c3.194-3.198,7.468-4.895,11.816-4.895
	c2.149,0,4.323,0.416,6.392,1.273C530.552,287.877,534.622,293.967,534.622,300.726z M384.259,100.242
	C300.724,100.242,267.31,0,167.068,0C112.412,0,63.89,26.252,33.412,66.828c26.668-20.288,69.12-33.414,116.949-33.414
	c83.535,0,116.949,100.242,217.191,100.242c54.656,0,103.179-26.252,133.656-66.828C474.54,87.116,432.088,100.242,384.259,100.242z
	"/>
</svg>
