<?xml version="1.0" encoding="utf-8"?>
<!-- Generator: Adobe Illustrator 17.0.0, SVG Export Plug-In . SVG Version: 6.00 Build 0)  -->
<!DOCTYPE svg PUBLIC "-//W3C//DTD SVG 1.1//EN" "http://www.w3.org/Graphics/SVG/1.1/DTD/svg11.dtd">
<svg version="1.1" id="Layer_1" xmlns="http://www.w3.org/2000/svg" xmlns:xlink="http://www.w3.org/1999/xlink" x="0px" y="0px"
	 width="148.01px" height="152.42px" viewBox="0 0 148.01 152.42" enable-background="new 0 0 148.01 152.42" xml:space="preserve">
<g>
	<path fill="#FFFFFF" d="M76.856,41.274c-2.898,6.115-1.747,11.134,2.581,11.213c4.329,0.075,10.193-4.815,13.089-10.927
		c2.904-6.118,1.751-11.141-2.578-11.22C85.62,30.269,79.759,35.163,76.856,41.274z M112.124,19.195
		c0.036,0.015,0.059,0.054,0.059,0.093c0,0.014-0.002,0.025-0.005,0.032c-2.587,7.328-6.878,15.67-11.131,21.996
		c-8.959,13.301-21.819,21.689-28.718,18.728c-6.895-2.953-5.236-16.136,3.731-29.443c2.019-2.986,4.232-5.721,6.523-8.141
		c0.016-0.018,0.029-0.043,0.029-0.072c0-0.054-0.047-0.1-0.102-0.1c0,0-0.011,0-0.012,0.004c-2.818,0.39-5.673,0.945-8.553,1.672
		c-0.02,0.004-0.041,0.018-0.056,0.036C43.621,61.115,30.74,109.319,32.512,152.32l0,0c0,0.058-0.043,0.1-0.1,0.1
		c-0.013,0-0.027,0-0.038-0.004c-17.844-7.192-30.884-24.427-32.241-46.248l-0.018-0.251c-2.25-38.827,28.704-78.599,69.149-88.834
		C84.938,13.113,99.746,14.158,112.124,19.195z"/>
	<path fill="#FFFFFF" d="M100.682,123.911c-2.941,2.041-6.009,3.927-9.176,5.628c-0.014,0.004-0.032,0.011-0.047,0.011
		c-0.054,0-0.1-0.043-0.104-0.097c-0.591-9.322-2.599-18.352-6.072-25.866c-9.258-20.06-25.444-21.603-36.136-3.444
		c-6.543,11.113-9.522,27.037-8.716,42.325c0,0.043,0.03,0.079,0.07,0.09c11.345,3.555,24.413,3.945,38.356,0.426
		c40.39-10.29,71.281-50.019,69.038-88.806c-1.98-34.072-28.858-56.087-62.742-54.046c-0.023,0-0.048,0.011-0.063,0.029
		c-3.295,3.333-6.38,6.698-9.274,10.096c-0.014,0.018-0.023,0.043-0.023,0.064c0,0.058,0.047,0.104,0.1,0.104
		c0,0,0.007,0,0.014-0.004c19.855-2.513,35.769,1.521,46.157,9.795c0.022,0.018,0.034,0.047,0.034,0.078
		c0,0.018-0.004,0.04-0.012,0.054c-35.782,50.437-31.353,79.175-21.37,103.441c0.006,0.011,0.009,0.022,0.009,0.036
		C100.725,123.861,100.707,123.893,100.682,123.911z"/>
</g>
</svg>
